<svg xmlns="http://www.w3.org/2000/svg" data-name="1" viewBox="0 0 4680 3120"><defs><clipPath id="a"><path fill="none" d="M3234.83,2489.15a544.23,544.23,0,0,0,65.49-75.68L3423,2242.09c144.37-201.71,134-475.55-25.29-665.73L3278,1433.43a544,544,0,0,1-119.65-260.69L3144,1085.6A543.87,543.87,0,0,0,2824.6,675.48L2504.42,536a543.86,543.86,0,0,0-460.17,12L955.64,1091.52C728.19,1205.09,609.75,1461.07,670.44,1708l110.67,450.2c61,248.23,286.67,420.46,542.21,413.86l430.37-11.13c-55.41,13.26-85.83,27.68-85.83,42.77,0,65.1,566.29,117.88,1264.83,117.88s1264.83-52.78,1264.83-117.88C4197.52,2548.25,3787.48,2501.77,3234.83,2489.15Z"/></clipPath><clipPath id="b"><path fill="none" d="M3104.77,1764.05s-303,43.46-361.47,176.65S2897,2476.37,2897,2476.37l192.26-41.57L2949,2070.63a29.94,29.94,0,0,1,19.88-39.59l222.53-62.18s56.33,227.85,84.49,258.57,235.53,181.77,235.53,181.77,18.54-119.82,126.17-114.15a6,6,0,0,0,4.48-10.25c-156.57-148.94-193.57-187.36-193.57-187.36l-57.41-197.7s23-113.41-53.76-164.23S3104.77,1764.05,3104.77,1764.05Z"/></clipPath><clipPath id="c"><path fill="none" d="M2804.82,1505.48s-2.56-74.14-19.2-96.6-70-42.93-67.85-32.69c1.79,8.55,25.73,23.64,36.88,30.53a.51.51,0,0,1-.42.92c-12.76-3.94-52.16-15.43-54.92-8.14s30.28,24.8,40.82,30.15a.51.51,0,0,1-.32.95c-12.9-2.28-51.68-5-45.12,2.64s28.22,17.89,36.2,22.22a.51.51,0,0,1-.3,1c-8.23-.74-37.3.61-28.64,9,9.1,8.77,30.76,13.66,30.76,13.66s-8.54,44.37,16.64,61.86S2804.82,1505.48,2804.82,1505.48Z"/></clipPath><clipPath id="d"><path fill="none" d="M3072,1247.47s-17.85,91.3,66.9,70.42c3.52,22.3,0,27.58,0,27.58l81.58-7,5.87-59.86-44-52.77S3077.88,1203.45,3072,1247.47Z"/></clipPath><clipPath id="e"><path fill="none" d="M3080.62,1161.2s-56.18,37.52-5.54,37.36,64.22,14.78,83,43.09,21.79,5.75,21.79,5.75-.66,38.21,11.08,40.56,16.74-14.09,16.74-14.09,18.47,33.65,31,32.87,7.41-65.09,7.41-65.09S3135.39,1147.11,3080.62,1161.2Z"/></clipPath><clipPath id="f"><path fill="none" d="M3246.09,1241.65c-59.29-48-99.07-67.68-170.1-81.83,0,0,70.23-97,153.35-43.68C3300.05,1161.53,3246.09,1241.65,3246.09,1241.65Z"/></clipPath><clipPath id="g"><path fill="none" d="M3342.67,1763.13h-.05c-18.23,2.94-50.08,6.14-102,11.16-105.58,10.24-163.62,29.88-183.23,10.24s-8.6-22.63-17.07-42.67c-6.17-14.57-2.67-57.61,3.32-94.29-36.71,37.55-71.17,51.2-131.33,32-43.78-14-169-128.57-169-128.57s-5.12-93.32,70-81.36c104.12,46.93,137.84,65.64,137.84,65.64s32-198.77,167.69-174c0,0,8.6-10.65,8.52-24.76s9.75-17.07,37.74-21.32,70.45-14.52,85.91,7.68,11.86,36.68,39.69,44.36,60.24,35.85,56.83,114.36,17.92,227.85,14.52,242.34-6.1,20.49.35,29C3365.71,1757.29,3361.49,1760.08,3342.67,1763.13Z"/></clipPath><clipPath id="h"><path fill="#ff9739" d="M3310.52,1373.89s36.75,173.19-100.61,287.1c-122.17,101.32-177.63-6.65-186.74-34-36,5.34-145.33,209.71-44.11,286.32s304-104.15,353.53-277.84c43.85-153.72,10.85-237.85,10.85-237.85C3339.88,1384.83,3321.26,1370.92,3310.52,1373.89Z"/></clipPath></defs><rect width="4680" height="3120" fill="#fff" data-name="1" opacity="0"/><path fill="#e0eaf6" d="M3234.83,2489.15a544.23,544.23,0,0,0,65.49-75.68L3423,2242.09c144.37-201.71,134-475.55-25.29-665.73L3278,1433.43a544,544,0,0,1-119.65-260.69L3144,1085.6A543.87,543.87,0,0,0,2824.6,675.48L2504.42,536a543.86,543.86,0,0,0-460.17,12L955.64,1091.52C728.19,1205.09,609.75,1461.07,670.44,1708l110.67,450.2c61,248.23,286.67,420.46,542.21,413.86l430.37-11.13c-55.41,13.26-85.83,27.68-85.83,42.77,0,65.1,566.29,117.88,1264.83,117.88s1264.83-52.78,1264.83-117.88C4197.52,2548.25,3787.48,2501.77,3234.83,2489.15Z"/><g clip-path="url(#a)"><path fill="#7dbcda" d="M3328.2,1256.1h-2.95v17.82H3303V1364l-110.66-.5v55.6h-93.81V1075.43h-87.59v-25.75h-3.32v25.75h-94.92v-25.75h-3.32v25.75h-67v-25.75H2839v25.75h-18.45V1443.6h-84.89V1244.51H2559.31v-151.6l-3.84-2.11h-24.69v-.08H2387v.08h-.12v26.55h.12v18.26h-.12v26.56h.12v18.32h-.12V1207h.12v.1l-15.23-.1v-138.9h-21.63v-19.88h-2.57v19.88h-118.5v-19.88h-2.57v19.88h-16v17.59h-.09v26.55h.09v23.33h-.09v26.56h.09v18.32h-.09V1207h.09v17h-.09v26.56h.09v17h-.09v26.55h.09v16h-.09v16.86h.09v1.85h-53.68V1195.86h-8v132.88h-81.16v-70.89h-5.12v70.89h-33.87v152h-67.9V1519h-73.23v-65.92H1755.84V1273.94h-20.6V1256.1h-3v17.84h-17.07v0h-85.45V1256.1h-2.94v17.82h-22.27V1364l-110.65-.5v55.58h-93.82V1075.43h-24.53v-25.75h-3.32v25.75h-59.73v-25.75h-3.32v25.75h-94.92v-25.75H1211v25.75h-67v-25.75h-3.32v25.75h-18.47v368.15h-84.87V1244.51H932.18v-151.6c-1.28-.71-2.57-1.4-3.83-2.11H903.64v-.08H759.9v.08h-.12v26.55h.12v18.26h-.12v26.56h.12v18.32h-.12V1207h.12v.1l-15.22-.1v-138.9H723v-19.88h-2.55v19.88H602v-19.88h-2.57v19.88h-16v17.59h-.07v26.55h.07v23.33h-.07v26.56h.07v18.32h-.07V1207h.07v17h-.07v26.56h.07v17h-.07v26.55h.07v16h-.07v16.86h.07v1.85H529.7V1195.86h-8v132.88H440.56v-70.89h-5.12v70.89H404.5V2457.58H3358V1273.92H3328.2Z"/><g opacity=".8"><rect width="212.07" height="58.25" x="1184.36" y="1080.71" fill="#fff"/><rect width="212.07" height="58.25" x="1184.36" y="1170.37" fill="#fff"/><rect width="212.07" height="58.25" x="1184.36" y="1261.9" fill="#fff"/><rect width="212.07" height="58.25" x="1184.36" y="1354.89" fill="#fff"/><rect width="212.07" height="58.25" x="1184.36" y="1444.62" fill="#fff"/></g><g opacity=".8"><rect width="193.08" height="58.25" x="2901.74" y="1080.71" fill="#fff"/><rect width="193.08" height="58.25" x="2901.74" y="1170.37" fill="#fff"/><rect width="193.08" height="58.25" x="2901.74" y="1261.9" fill="#fff"/><rect width="193.08" height="58.25" x="2901.74" y="1354.89" fill="#fff"/><rect width="193.08" height="58.25" x="2901.74" y="1444.62" fill="#fff"/></g><g opacity=".5"><rect width="98.95" height="35.38" x="2207.12" y="1073.41" fill="#fff"/><rect width="98.95" height="35.38" x="2207.12" y="1127.87" fill="#fff"/><rect width="98.95" height="35.38" x="2207.12" y="1183.45" fill="#fff"/><rect width="98.95" height="35.38" x="2207.12" y="1239.93" fill="#fff"/><rect width="98.95" height="35.38" x="2207.12" y="1294.42" fill="#fff"/><rect width="98.95" height="35.38" x="2207.12" y="1354.39" fill="#fff"/><rect width="98.95" height="35.38" x="2207.12" y="1408.84" fill="#fff"/><rect width="98.95" height="35.38" x="2207.12" y="1464.43" fill="#fff"/><rect width="98.95" height="35.38" x="2207.12" y="1520.91" fill="#fff"/><rect width="98.95" height="35.38" x="2207.12" y="1575.4" fill="#fff"/><rect width="106.04" height="35.38" x="2383.13" y="1096.61" fill="#fff"/><rect width="106.04" height="35.38" x="2383.13" y="1151.06" fill="#fff"/><rect width="106.04" height="35.38" x="2383.13" y="1206.65" fill="#fff"/><rect width="106.04" height="35.38" x="2383.13" y="1263.13" fill="#fff"/><rect width="106.04" height="35.38" x="2383.13" y="1317.62" fill="#fff"/><rect width="106.04" height="35.38" x="2383.13" y="1374.43" fill="#fff"/><rect width="106.04" height="35.38" x="2383.13" y="1428.88" fill="#fff"/><rect width="106.04" height="35.38" x="2383.13" y="1484.47" fill="#fff"/><rect width="106.04" height="35.38" x="2383.13" y="1540.94" fill="#fff"/><rect width="106.04" height="35.38" x="2383.13" y="1595.44" fill="#fff"/><rect width="106.04" height="35.38" x="2383.13" y="1657.93" fill="#fff"/><rect width="106.04" height="35.38" x="2383.13" y="1712.38" fill="#fff"/><rect width="106.04" height="35.38" x="2383.13" y="1767.97" fill="#fff"/><rect width="106.04" height="35.38" x="2383.13" y="1824.45" fill="#fff"/><rect width="106.04" height="35.38" x="2383.13" y="1878.94" fill="#fff"/><rect width="106.04" height="35.38" x="578.71" y="1073.41" fill="#fff"/><rect width="106.04" height="35.38" x="578.71" y="1127.87" fill="#fff"/><rect width="106.04" height="35.38" x="578.71" y="1183.45" fill="#fff"/><rect width="106.04" height="35.38" x="578.71" y="1239.93" fill="#fff"/><rect width="106.04" height="35.38" x="578.71" y="1294.42" fill="#fff"/><rect width="106.04" height="35.38" x="578.71" y="1354.39" fill="#fff"/><rect width="106.04" height="35.38" x="578.71" y="1408.84" fill="#fff"/><rect width="106.04" height="35.38" x="578.71" y="1464.43" fill="#fff"/><rect width="106.04" height="35.38" x="578.71" y="1520.91" fill="#fff"/><rect width="106.04" height="35.38" x="578.71" y="1575.4" fill="#fff"/><rect width="120.52" height="35.38" x="758.27" y="1096.61" fill="#fff"/><rect width="120.52" height="35.38" x="758.27" y="1151.06" fill="#fff"/><rect width="120.52" height="35.38" x="758.27" y="1206.65" fill="#fff"/><rect width="120.52" height="35.38" x="758.27" y="1263.13" fill="#fff"/><rect width="120.52" height="35.38" x="758.27" y="1317.62" fill="#fff"/><rect width="120.52" height="35.38" x="758.27" y="1374.43" fill="#fff"/><rect width="120.52" height="35.38" x="758.27" y="1428.88" fill="#fff"/><rect width="120.52" height="35.38" x="758.27" y="1484.47" fill="#fff"/><rect width="120.52" height="35.38" x="758.27" y="1540.94" fill="#fff"/><rect width="120.52" height="35.38" x="758.27" y="1595.44" fill="#fff"/><rect width="120.52" height="35.38" x="758.27" y="1657.93" fill="#fff"/><rect width="120.52" height="35.38" x="758.27" y="1712.38" fill="#fff"/><rect width="120.52" height="35.38" x="758.27" y="1767.97" fill="#fff"/><rect width="120.52" height="35.38" x="758.27" y="1824.45" fill="#fff"/><rect width="120.52" height="35.38" x="758.27" y="1878.94" fill="#fff"/></g><path fill="#cfdbf1" d="M2376.61,2344.58c-613.27,0-1155.38,39.4-1483,99.69-206.68,38-328,84.33-328,134.33,0,21.71,22.89,42.76,65.72,62.7,212.13,98.82,913.17,171.32,1745.28,171.32,671.9,0,1258.32-47.28,1570.91-117.51a.3.3,0,0,1,.13,0c152.64-34.31,239.94-74.07,239.94-116.49a30.81,30.81,0,0,0-.64-6.27C4161.24,2446,3360.54,2344.58,2376.61,2344.58Z"/><path fill="#7dbcda" d="M2845.65,2706.63c-115-5.58-221.63-23.5-335-67.65a10,10,0,0,1-1.28-17.95c71.69-41.49,487.58-120.56,703.77-131.34a12178.47,12178.47,0,0,0-2221.9,81.82C870,2587.15,747.61,2605,631.33,2641.3c212.13,98.82,913.17,171.32,1745.28,171.32,671.9,0,1258.32-47.28,1570.91-117.51C3580.27,2714,3212.74,2724.43,2845.65,2706.63Z"/><path fill="#65a9c4" d="M2376.61,2344.58c-613.27,0-1155.38,39.4-1483,99.69L816.86,2543C1927.8,2333.22,3079.8,2343.25,4187,2572.33,4161.24,2446,3360.54,2344.58,2376.61,2344.58Z"/></g><rect width="909.56" height="1811.55" x="1195.69" y="485.38" fill="#1642a4" rx="56.11"/><rect width="909.56" height="1811.55" x="1264.57" y="485.38" fill="#426ac4" rx="56.11"/><path fill="#7296e5" d="M1234.83,886.81l-15-.08a4,4,0,0,0-4,4l-1.51,286.66a4,4,0,0,0,4,4l15,.08a4,4,0,0,0,4-4l1.5-286.66A4,4,0,0,0,1234.83,886.81Z" opacity=".7"/><path fill="#7296e5" d="M1233.18,1201l-15-.07a4,4,0,0,0-4,4l-.74,140.87a4,4,0,0,0,4,4l15,.08a4,4,0,0,0,4-4l.74-140.86A4,4,0,0,0,1233.18,1201Z" opacity=".7"/><path fill="#e9f5ff" d="M1992.23,585.19h-67.47l-19.18,44.64-1.89,4.39h-340.6l-26.81-49h-89.81a113.12,113.12,0,0,0-72.19,26h0a113.62,113.62,0,0,0-41.42,87.59v1312.4a113.94,113.94,0,0,0,113.63,113.63h545.76c62.51,0,113.63-51.14,113.63-113.63V698.82c0-2.68-.08-5.34-.28-8C2101.45,632.05,2052.06,585.19,1992.23,585.19Z"/><path fill="#b6dbff" d="M1992.23,585.19h-67.47l-19.18,44.64-1.89,4.39h-340.6l-26.81-49h-89.81a113.12,113.12,0,0,0-72.19,26h0a107.45,107.45,0,0,0-6.84,37.81V1902.21a108.87,108.87,0,0,0,108.51,108.51h521.14c59.7,0,108.51-48.84,108.51-108.51V690.84C2101.45,632.05,2052.06,585.19,1992.23,585.19Z"/><path fill="#7296e5" d="M1812.25,526h-224.7a8.35,8.35,0,0,0-8.33,8.34v19.95a8.34,8.34,0,0,0,8.33,8.33h224.7a8.35,8.35,0,0,0,8.34-8.33V534.32A8.35,8.35,0,0,0,1812.25,526Zm2.34,28.29a2.34,2.34,0,0,1-2.34,2.33h-224.7a2.34,2.34,0,0,1-2.33-2.33V534.32a2.34,2.34,0,0,1,2.33-2.34h224.7a2.34,2.34,0,0,1,2.34,2.34Z" opacity=".7"/><path fill="#7296e5" d="M1879,523.11H1854.7a9.52,9.52,0,0,0-9.5,9.5v24.32a9.52,9.52,0,0,0,9.5,9.5H1879a9.52,9.52,0,0,0,9.5-9.5V532.61A9.51,9.51,0,0,0,1879,523.11Zm3.5,33.82a3.5,3.5,0,0,1-3.5,3.5H1854.7a3.5,3.5,0,0,1-3.5-3.5V532.61a3.5,3.5,0,0,1,3.5-3.5H1879a3.5,3.5,0,0,1,3.5,3.5Z" opacity=".7"/><path fill="#1642a4" d="M1777.41,2157.43a40.11,40.11,0,0,0-14.35,2.64c-18.34,6.89-31.57,26.67-31.57,50s13.23,43.12,31.57,50a40.11,40.11,0,0,0,14.35,2.64c25.35,0,45.93-23.57,45.93-52.65S1802.76,2157.43,1777.41,2157.43Z"/><path fill="#7296e5" d="M1763.06,2160.07c-18.34,6.89-31.57,26.67-31.57,50s13.23,43.12,31.57,50c18.34-6.92,31.57-26.7,31.57-50S1781.4,2167,1763.06,2160.07Z"/><rect width="306.25" height="72.06" x="1551.18" y="1449.08" fill="#ff9739" rx="14.16"/><path fill="#fff" d="M2014.61,1181.61H1409.05a36,36,0,1,0,0,72.06h605.56a36,36,0,0,0,0-72.06Z"/><path fill="#1642a4" d="M2014.61,1179.61H1409.05a38,38,0,1,0,0,76.06h605.56a38,38,0,0,0,0-76.06Zm0,72.06H1409.05a34,34,0,1,1,0-68.06h605.56a34,34,0,0,1,0,68.06Z"/><rect width="677.62" height="72.06" x="1373.02" y="1297.66" fill="#fff" rx="14.16"/><path fill="#1642a4" d="M2036.48,1295.66h-649.3a16.17,16.17,0,0,0-16.16,16.16v43.73a16.18,16.18,0,0,0,16.16,16.16h649.3a16.18,16.18,0,0,0,16.16-16.16v-43.73A16.17,16.17,0,0,0,2036.48,1295.66Zm12.16,59.89a12.17,12.17,0,0,1-12.16,12.16h-649.3a12.17,12.17,0,0,1-12.16-12.16v-43.73a12.17,12.17,0,0,1,12.16-12.16h649.3a12.17,12.17,0,0,1,12.16,12.16Z"/><circle cx="1914.22" cy="1336.88" r="12.68" fill="#1642a4"/><circle cx="1870.73" cy="1336.88" r="12.68" fill="#1642a4"/><circle cx="1827.24" cy="1336.88" r="12.68" fill="#1642a4"/><circle cx="1783.75" cy="1336.88" r="12.68" fill="#1642a4"/><path fill="#1642a4" d="M1740.26,1324.19a12.69,12.69,0,1,0,12.68,12.69A12.69,12.69,0,0,0,1740.26,1324.19Z"/><path fill="#1642a4" d="M1696.77,1324.19a12.69,12.69,0,1,0,12.68,12.69A12.69,12.69,0,0,0,1696.77,1324.19Z"/><path fill="#1642a4" d="M1653.28,1324.19a12.69,12.69,0,1,0,12.68,12.69A12.69,12.69,0,0,0,1653.28,1324.19Z"/><path fill="#1642a4" d="M1609.79,1324.19a12.69,12.69,0,1,0,12.68,12.69A12.69,12.69,0,0,0,1609.79,1324.19Z"/><path fill="#1642a4" d="M1566.3,1324.19a12.69,12.69,0,1,0,12.68,12.69A12.69,12.69,0,0,0,1566.3,1324.19Z"/><path fill="#ff7300" d="M1715.48,802.76c-3.45-.24-6.93-.38-10.44-.38a139.21,139.21,0,1,0,0,278.41c3.51,0,7-.14,10.44-.38a139.22,139.22,0,0,0,0-277.65Z"/><ellipse cx="1715.48" cy="941.58" fill="#ff9739" rx="128.76" ry="138.83"/><path fill="#fff" d="M1711.42,848.17c-24,0-43.56,19.86-43.56,43.91a42.88,42.88,0,0,0,9.41,27.18,43.59,43.59,0,0,0,68.66,0,42.82,42.82,0,0,0,9.41-27.18A44,44,0,0,0,1711.42,848.17Z"/><path fill="#fff" d="M1634.24,981.94l0,32.29c0,27.71,154.74,27.71,154.74,0l0-32.29C1782.85,937.8,1646.84,935.94,1634.24,981.94Z"/><path fill="#1642a4" d="M1445.77,1325.11a14.18,14.18,0,1,0-28.35,0V1327h-2.24v25.55c0,4.42,32.74,4.42,32.74,0V1327h-2.15Zm-11.86,14.8v7.38a2.18,2.18,0,0,1-2.27,2.27,2.35,2.35,0,0,1-2.46-2.27v-7.38a4.52,4.52,0,0,1,2.46-8.33,4.61,4.61,0,0,1,4.55,4.55A4.3,4.3,0,0,1,1433.91,1339.91Zm6.81-12.87h-18.35v-1.93c0-5.19,3.13-9.36,9.22-9.36s9.13,4.45,9.13,9.36Z"/><path fill="#1642a4" d="M1870.67,1207.07H1738a10.57,10.57,0,1,0,0,21.14h132.71a10.57,10.57,0,0,0,0-21.14Z"/><path fill="#1642a4" d="M1695.64,1207.07h-132.7a10.57,10.57,0,1,0,0,21.14h132.7a10.57,10.57,0,0,0,0-21.14Z"/><path fill="#1642a4" d="M1431.38,1197.93a9.26,9.26,0,0,0-9.19,9.26,9,9,0,0,0,2,5.74,9.19,9.19,0,0,0,14.48,0,9,9,0,0,0,2-5.74A9.27,9.27,0,0,0,1431.38,1197.93Z"/><path fill="#1642a4" d="M1415.09,1226.16V1233c0,5.85,32.82,5.85,32.82,0l-.18-6.81C1446.45,1216.84,1417.76,1216.45,1415.09,1226.16Z"/><path fill="#8ab6eb" d="M1992.23,585.19h-67.47l-19.18,44.64a182,182,0,0,1,142.35,130.82l57.65,210.18.28,1v-273c0-2.68-.08-5.34-.28-8C2101.45,632.05,2052.06,585.19,1992.23,585.19Z"/><g opacity=".4"><path fill="#fff" d="M1536.28,585.19h-89.81a113.12,113.12,0,0,0-72.19,26h0a113.62,113.62,0,0,0-41.42,87.59V910.69L1680.7,634.22H1563.09Z"/><path fill="#fff" d="M1332.84,2011.22a113.39,113.39,0,0,0,1.2,16.49l771.82-613.4V1181.88l-773,614.35Z"/><polygon fill="#fff" points="1332.84 1611.6 2105.86 997.24 2105.86 935.71 1332.84 1550.08 1332.84 1611.6"/></g><path fill="#cc2e45" d="M2340.08,1158.3c-109.33,117.11-283.79,213.1-470.48,254,0,12.47-.36,81.54-1.78,399.94-1.9,424.73,402.32,632.29,465.07,664.14,60.81-28,470.12-235.22,472-659.95,1.42-318.4,1.73-387.48,1.79-399.94C2620.39,1373.92,2448.36,1276.39,2340.08,1158.3Z"/><path fill="#fff" d="M2545.59,1313.09c-79.56-44.31-149.86-98.54-203.3-156.82l-2.19-2.39-2.22,2.37c-110.5,118.38-285.8,213-468.92,253.11l-2.34.51-1.8,402.34c-.44,98,20.87,192.15,63.34,279.8,34.71,71.64,83.77,139.51,145.82,201.74,50.28,50.41,135.77,123.48,257.55,185.29l1.3.66,1.31-.61c48.29-22.22,471.84-229.65,473.77-662.66l1.8-402.34-2.34-.54A1005.41,1005.41,0,0,1,2545.59,1313.09Zm256.32,503.31C2800,2242,2386.77,2448,2333,2473c-120.38-61.31-204.93-133.6-254.72-183.52-61.58-61.75-110.25-129.08-144.67-200.11-42.07-86.82-63.18-180.07-62.74-277.16l1.77-397.54c182.19-40.38,356.52-134.37,467.47-252,53.59,57.84,123.57,111.6,202.61,155.62a1011.87,1011.87,0,0,0,261,100.53Z"/><path fill="#ea5c77" d="M2339.35,1236.35c-96.37,103.23-250.17,187.86-414.75,223.89-.06,11-.33,71.9-1.58,352.59-1.67,374.45,354.68,557.42,410,585.5q2.67-1.22,6.33-3c70.84-34,408.19-216.84,409.8-578.83,1.25-280.69,1.51-341.6,1.58-352.59C2586.46,1426.43,2434.82,1340.43,2339.35,1236.35Z"/><path fill="#ed3e60" d="M1924.6,1460.24c-.06,11-.33,71.9-1.58,352.59-1.67,374.45,354.68,557.42,410,585.5q2.67-1.22,6.33-3v-1159C2243,1339.58,2089.18,1424.21,1924.6,1460.24Z"/><path fill="#fff" d="M2157.67,2016.48c0,31.22,407.8,31.22,407.8,0v-281h-407.8Zm203.9-222c27.8,0,50.35,21.11,50.35,47.16,0,19.16-12.2,35.64-29.72,43v79.06a20,20,0,0,1-20,20h-1.32a20,20,0,0,1-20-20v-79.06c-17.51-7.38-29.71-23.86-29.71-43C2311.22,1815.58,2333.76,1794.47,2361.57,1794.47Z"/><path fill="#fff" d="M2361.56,1539c-92.71,0-168.15,70.68-168.15,157.55v18.92h41.27v-18.92c0-65.55,56.93-118.88,126.88-118.88s126.9,53.33,126.9,118.88v18.92h41.27v-18.92C2529.73,1609.7,2454.29,1539,2361.56,1539Z"/><g data-name="key"><path fill="#fff" d="M701.08,1582.92c0,31.23,407.81,31.23,407.81,0V1302H701.08Zm203.9-222c27.81,0,50.35,21.11,50.35,47.16,0,19.16-12.2,35.64-29.71,43v79.06a20,20,0,0,1-20,20h-1.33a20,20,0,0,1-20-20v-79.06c-17.51-7.38-29.71-23.86-29.71-43C854.64,1382,877.18,1360.91,905,1360.91Z"/><path fill="#1642a4" d="M698.08,1582.92c0,6.41,7.55,14.54,66.42,20.55,37.08,3.78,87,5.87,140.49,5.87s103.4-2.09,140.48-5.87c58.87-6,66.42-14.14,66.42-20.55V1299H698.08Zm6-278h401.81v278c0,.34-.7,8.42-61,14.58-36.88,3.77-86.56,5.84-139.87,5.84s-103-2.07-139.88-5.84c-60.33-6.16-61-14.24-61-14.58Z"/><path fill="#1642a4" d="M881.35,1453.05v77.1a23,23,0,0,0,23,23h1.33a23,23,0,0,0,23-23v-77.1c18.12-8.43,29.71-25.88,29.71-45,0-27.66-23.93-50.16-53.35-50.16s-53.34,22.5-53.34,50.16C851.64,1427.17,863.23,1444.62,881.35,1453.05ZM905,1363.91c26.11,0,47.35,19.81,47.35,44.16,0,17.32-10.94,33.12-27.87,40.26l-1.84.77v81.05a17,17,0,0,1-17,17h-1.33a17,17,0,0,1-17-17V1449.1l-1.84-.77c-16.93-7.14-27.87-22.94-27.87-40.26C857.64,1383.72,878.88,1363.91,905,1363.91Z"/><path fill="#fff" d="M905,1105.46c-92.72,0-168.16,70.68-168.16,157.55v18.92H778.1V1263c0-65.55,56.92-118.88,126.88-118.88s126.89,53.33,126.89,118.88v18.92h41.28V1263C1073.15,1176.14,997.71,1105.46,905,1105.46Z"/><path fill="#1642a4" d="M905,1102.46c-94.38,0-171.16,72-171.16,160.55v21.92H781.1V1263c0-63.9,55.57-115.88,123.88-115.88s123.89,52,123.89,115.88v21.92h47.28V1263C1076.15,1174.49,999.36,1102.46,905,1102.46Zm165.17,176.47h-35.28V1263c0-67.2-58.27-121.88-129.89-121.88S775.1,1195.81,775.1,1263v15.92H739.82V1263c0-85.22,74.09-154.55,165.16-154.55s165.17,69.33,165.17,154.55Z"/></g><polygon fill="#fff" points="2751.37 847.54 2672.28 1003.89 2742.31 991.78 2702.48 1202.23 2828.39 918.79 2736.51 939.81 2751.37 847.54"/><polygon fill="#1642a4" points="2705.41 1202.78 2710.1 1177.79 2699.76 1201.02 2705.41 1202.78"/><path fill="#1642a4" d="M2737.67,940c.09-.58.18-1.16.26-1.74l-1.68.41Z"/><polygon fill="#1642a4" points="2826.54 917.97 2824.88 921.65 2828.85 920.77 2826.54 917.97"/><polygon fill="#1642a4" points="2673.99 1004.76 2675.68 1001.33 2671.95 1002 2673.99 1004.76"/><path fill="#1642a4" d="M2782.09,927.69l-22.93,5.46-21.23,5.11c-.08.58-.17,1.16-.26,1.74l-1.42-1.33,1.68-.41c2.25-15,4.43-30,6.57-44.92l3.36-23q1.71-11.43,3.51-22.78-1.9,11.7-3.92,23.36L2743.39,894c-2.73,15.32-5.42,30.45-8,45.61l-.3,1.71,1.72-.38,23-5,23-5.05,42.06-9.26,1.66-3.68,2.31,2.8-4,.88-30.24,67-31.74,70.74-31.62,70.8-21.18,47.61-4.69,25-5.65-1.76,10.34-23.23,15.06-80.26,9.77-52.65,9.71-52.66.63-3.38-3.36.6-66.23,11.89-1.69,3.43-2-2.76,3.73-.67,17.49-35.44,19.08-39.16q9.57-19.68,19.34-39.49c6.52-13.17,13.12-26.48,19.78-39.7-6.52,12.84-13.1,25.59-19.76,38.48s-13.41,25.74-20.21,38.68l-20.47,39L2670.56,1003l-1.75,3.39,3.79-.63,66.73-11.1.65-3.34,2.74,2.77-3.39.57-9.55,49.22-10.15,52.58-20.07,105.2-4.86,25.43,10.5-23.67,31.44-70.88,31.34-70.92,31.21-71,31.06-71,1.64-3.74-3.95.93Z"/><polygon fill="#1642a4" points="2739.98 991.34 2739.34 994.68 2742.72 994.12 2739.98 991.34"/><polygon fill="#fff" points="2397.2 693.01 2376.6 888.97 2421.43 760.49 2456.14 789.37 2462.2 678.22 2441.11 733.72 2397.2 693.01"/><polygon fill="#1642a4" points="2457.37 787.9 2454.49 785.45 2454.22 789.27 2457.37 787.9"/><path fill="#1642a4" d="M2451.34,705.4c-3.55,8.65-7.14,17.45-10.67,26.27l1.24,1.19-1.9.45.66-1.64-9.56-9.18-10.84-10.33-21.69-20.64-2.94-2.79-.46,4.07-5.61,48.94-5.44,49c-1.83,16.32-3.54,32.65-5.3,49s-3.53,32.65-5.19,49l-2.58,25.4,8.35-24.11,22.26-64.29,11-32.18q5-14.49,9.88-29l-2.67-2.17,3.76-1-1.09,3.21,32.33,26.37,3,2.44.15-3.81,1.11-28.28c.35-9.42.59-18.78.87-28.07s.58-18.5.94-27.66.75-18.19,1.22-27.25c-.54,9.46-1.17,19-1.82,28.32s-1.35,18.69-2.08,27.93-1.5,18.4-2.16,27.5l-1.65,23.48,2.88,2.45-3.14,1.37.26-3.82L2423,758.67l-2.59-2.2-1.17,3.24q-5.76,16-11.44,32l-11.39,32.06L2382.22,864c-.87,8.43-1.74,16.85-2.66,25.26l-5.77-1.29,8.43-24q1.22-11.87,2.45-23.73c1.67-16.34,3.4-32.67,5-49l4.86-49,4.31-45-3-2.73,3.4-1.28-.38,4L2418,714.57l11.12,10,11.16,10,1.31,1.18.58-1.62c3.29-9.13,6.5-18.28,9.76-27.6l5-14.09c1.7-4.74,3.46-9.49,5.24-14.23q-2.61,6.76-5.31,13.52Z"/><path fill="#1642a4" d="M2441.91,732.86l-1.24-1.19-.66,1.64Z"/><path fill="#1642a4" d="M2419.91,762.31l2.67,2.17,1.09-3.21Z"/><polygon fill="#1642a4" points="2395.82 694.5 2398.84 697.23 2399.22 693.22 2395.82 694.5"/><path fill="#1642a4" d="M2379.56,889.28c.92-8.41,1.79-16.83,2.66-25.26l-8.43,24Z"/><polygon fill="#fff" points="2058.2 1055.45 1941.68 875.73 2046.35 1167.68 2098.28 1089.03 2151.26 1166.03 2100.49 998.33 2058.2 1055.45"/><path fill="#1642a4" d="M2097.32,1089.7c.33.48.67,1,1,1.43l.93-1.45Z"/><polygon fill="#1642a4" points="2048.26 1167 2046.92 1163.19 2044.65 1166.57 2048.26 1167"/><polygon fill="#1642a4" points="2060.19 1054.16 2058.35 1051.3 2056.3 1054.04 2060.19 1054.16"/><polygon fill="#1642a4" points="2098.66 998.88 2099.8 1002.53 2102.04 999.47 2098.66 998.88"/><path fill="#1642a4" d="M2126.88,1082.62l-12.13-42.35-12.42-42.5-1.07-3.67-2.31,3.08-40.6,54.12,1.84,2.86-3.89-.12,2-2.74-27.08-42.2-29-45-58.12-89.95-14.06-21.74,8.76,24.37,26.2,73,26.31,72.94,26.44,72.89,26.6,72.83,1.4,3.84,2.21-3.41,25.65-39.53,12.81-19.78,11.83-18.36c-.34-.48-.68-1-1-1.43l1.94,0-.93,1.45c8.74,12.41,17.55,24.79,26.27,37l13.46,19q6.66,9.43,13.2,18.9-6.71-9.78-13.3-19.6l-13-19.52c-8.6-13-17.11-25.77-25.69-38.54l-1-1.44-1,1.46-13.2,19.51-13.16,19.55-24,35.74,1.34,3.81-3.61-.43,2.27-3.38-24.4-69.33-25.89-73.09-26-73-17.56-49.06-13.87-21.32,5.3-2.62,8.57,23.94,44.53,68.45,29.29,44.83,29.34,44.79,1.89,2.88,2-2.76,39.69-54.33-1.14-3.65,3.38.59-2.24,3.06,11.82,37.71,13.25,41.49q6.66,20.85,13.28,41.93c4.38,14,8.79,28.21,13.11,42.37-4.15-13.79-8.2-27.55-12.28-41.48S2130.9,1096.68,2126.88,1082.62Z"/><polygon fill="#1642a4" points="1939.18 877.35 1953.05 898.67 1944.48 874.73 1939.18 877.35"/><path fill="#28447d" d="M3690.57,2336.29c-7.63-8.73-15.62-17-23.5-24.63a531.71,531.71,0,0,0-57.42-48.28s-161,38.3-125.12,99.74c0,0,70,71.68-13.64,100.69-72.53,25.16-82.16,55.48-77.83,74.19a32.24,32.24,0,0,0,2.74,7.73c3,6,24.4,9.63,52.63,11.5h.06c52.4,3.48,128.31.92,153.81-4,39.27-7.53,151.91-116.74,117.76-176.5C3712.05,2362.73,3701.71,2349,3690.57,2336.29Z"/><path fill="#fff" d="M3690.57,2336.29c-7.63-8.73-15.62-17-23.5-24.63-56.35,12.88-87.28,82.49-93.78,111.19-8.52,37.55-29,92.16-75.09,112.72-27.16,12.13-72.47,7.93-105.14,2.43a32.24,32.24,0,0,0,2.74,7.73c3,6,24.4,9.63,52.63,11.5h.06c52.4,3.48,128.31.92,153.81-4,39.27-7.53,151.91-116.74,117.76-176.5C3712.05,2362.73,3701.71,2349,3690.57,2336.29Z"/><path fill="#8e9db2" d="M3690.57,2336.29c-91.81-8.91-94.24,145.49-141.16,193.44-21.82,22.27-62.37,28-100.92,27.5,52.4,3.48,128.31.92,153.81-4,39.27-7.53,151.91-116.74,117.76-176.5C3712.05,2362.73,3701.71,2349,3690.57,2336.29Z"/><rect width="4" height="47.53" x="3533.58" y="2441.38" fill="#fff" transform="rotate(-86.8 3535.84 2465.098)"/><rect width="4" height="47.53" x="3547.51" y="2391.33" fill="#fff" transform="rotate(-86.8 3549.767 2415.05)"/><path fill="#28447d" d="M3066.23,2434.35c-70.07,46.18-97.88,7.77-122.65-15.47-5.25-4.93-13.7-4.68-20.13-1.33L2744,2496.84a57.48,57.48,0,0,0-31.27,53.6l.13,2.82,393.8-17.68L3079.77,2440C3078.33,2434.16,3071.32,2431,3066.23,2434.35Z"/><polygon fill="#fff" points="2712.9 2553.26 2714.1 2578.61 3107.9 2560.93 3106.7 2535.58 2712.9 2553.26"/><rect width="4" height="78.73" x="2929.11" y="2480.93" fill="#fff" transform="rotate(-28.68 2930.657 2520.062)"/><rect width="4" height="58.71" x="2881.56" y="2500.37" fill="#fff" transform="rotate(-28.68 2883.186 2529.534)"/><path fill="#161b3c" d="M3448.49,2097.44l-57.41-197.7s23-113.41-53.76-164.23-232.55,28.54-232.55,28.54-303,43.46-361.47,176.65S2897,2476.37,2897,2476.37l192.26-41.57L2949,2070.63a29.94,29.94,0,0,1,19.88-39.59l222.53-62.18s56.33,227.85,84.49,258.57,235.53,181.77,235.53,181.77,18.54-119.82,126.17-114.15a6,6,0,0,0,4.48-10.25C3485.49,2135.86,3448.49,2097.44,3448.49,2097.44Z"/><g clip-path="url(#b)"><path fill="#0e1014" d="M3543.26,2170.78c-173.7-63.76-158.31,48.38-215.47,4.4S3253,2074,3268.42,1926.73c-26.38,24.18-83.62,39.93-83.62,39.93s-230.8,54.61-270.37,52.41-46.18,11-2.2,35.18,116.53,338.61,66,340.81-140.72,59.36-140.72,59.36L2965,2491.8l455.13,37.38,171.5-127.53,160.51-129.72S3717,2234.55,3543.26,2170.78Z" opacity=".7"/></g><path fill="#feb8c0" d="M2717.77,1376.19c1.79,8.55,25.73,23.64,36.88,30.53a.51.51,0,0,1-.42.92c-12.76-3.94-52.16-15.43-54.92-8.15s30.28,24.81,40.82,30.16a.51.51,0,0,1-.32.95c-12.9-2.28-51.68-5-45.12,2.64s28.22,17.89,36.2,22.22a.51.51,0,0,1-.3,1c-8.23-.74-37.3.61-28.64,9,9.1,8.77,30.76,13.66,30.76,13.66s-8.54,44.37,16.64,61.86,55.47-35.41,55.47-35.41-2.56-74.14-19.2-96.6S2715.63,1366,2717.77,1376.19Z"/><g clip-path="url(#c)"><path fill="#ef8998" d="M2755.92,1395.43a206.3,206.3,0,0,1-25.33-12c-6.63-3.71-13.7-8.73-14.76-16.25l-18.61-6.07c-.34,5.94,2.69,11.67,6.87,15.9s9.44,7.2,14.63,10.11l31,17.44c2.33,1.31,4.79,2.66,7.47,2.74s5.61-1.56,6-4.21C2763.85,1399.3,2759.5,1396.83,2755.92,1395.43Z"/><path fill="#ef8998" d="M2693.14,1390.27l-17.86,6.57c7.4,14.1,23.28,21.39,38.5,26.06a226.89,226.89,0,0,0,26.21,6.36c3.1.56,6.29,1.06,9.38.44s6.09-2.6,7.08-5.59a158.06,158.06,0,0,1-48.43-17.9C2701.51,1402.49,2694.75,1397.59,2693.14,1390.27Z"/><path fill="#ef8998" d="M2740.47,1446.88c-2-1.33-4.52-1.66-6.93-2-16.81-2.28-34.71-6.29-46.16-18.82l-11.8,8.57a347.82,347.82,0,0,0,44.22,20.11c6.61,2.47,14.31,4.67,20.43,1.15a6.07,6.07,0,0,0,2.74-2.79C2743.88,1450.87,2742.5,1448.22,2740.47,1446.88Z"/><path fill="#ef8998" d="M2778.58,1508.18c-4.39,2.6-9.08,5-14.17,5.48-6.84.63-13.75-2.48-18.42-7.52a31.45,31.45,0,0,1-7.8-18.67c-.44-5-.32-11.06-4.49-13.94a12.43,12.43,0,0,0-4.71-1.72c-6.47-1.3-13.16-1.32-19.57-2.86s-12.87-5-15.67-11l-13.82,45.48a66.66,66.66,0,0,0,26.42,53.11,57,57,0,0,0,21.79,10.15c11,2.39,22.71,1,33.33-2.92a75.75,75.75,0,0,0,49.06-81.68A139,139,0,0,1,2778.58,1508.18Z"/></g><path fill="#ef8998" d="M2961,1397.52c1.78,8.54,25.72,23.63,36.87,30.52a.51.51,0,0,1-.41.92c-12.76-3.93-52.16-15.43-54.92-8.14s30.27,24.8,40.81,30.15a.51.51,0,0,1-.32,1c-12.9-2.29-51.68-5-45.11,2.63s28.22,17.89,36.19,22.22a.51.51,0,0,1-.3,1c-8.22-.74-37.29.61-28.63,9,9.09,8.77,30.75,13.66,30.75,13.66s-8.53,44.37,16.64,61.87S3048,1526.8,3048,1526.8s-2.56-74.14-19.2-96.59S2958.83,1387.28,2961,1397.52Z"/><path fill="#ebafb5" d="M3072,1247.47s-17.85,91.3,66.9,70.42c3.52,22.3,0,27.58,0,27.58l81.58-7,5.87-59.86-44-52.77S3077.88,1203.45,3072,1247.47Z"/><g clip-path="url(#d)"><path fill="#ef8998" d="M3220.09,1184.42c-21.85-22.61-53.08-37-84.45-34.91-16.42,1.07-33.12,7-44.23,19.08l-27.14,82c14.34,6.43,30.83.49,45.85-4.14s33.47-7.11,44.61,4c2.33,2.32,4.4,5.25,7.58,6.06,1.64.41,3.39.19,5,.57,2.78.64,4.86,2.87,6.8,5a204.09,204.09,0,0,0,37.15,31.3c7,4.61,14.58,8.87,22.89,10.1s17.61-1.1,22.8-7.72c5.89-7.51,5.15-18.14,3.48-27.54C3254.94,1237.18,3241.94,1207,3220.09,1184.42Z"/><path fill="#ef8998" d="M3163.22,1297.11c-6.5-2.37-13.84-1-20.16,1.82s-11.93,7-17.91,10.43a94.08,94.08,0,0,1-67.17,10.33l12.9,54.34c29.68,16,69.8,9.22,92.61-15.59,10.28-11.18,17.26-26.52,14.58-41.47C3176.55,1308.45,3171.35,1300.08,3163.22,1297.11Z"/></g><path fill="#3b2bad" d="M3080.62,1161.2s-56.18,37.52-5.54,37.36,64.22,14.78,83,43.09,21.79,5.75,21.79,5.75-.66,38.21,11.08,40.56,16.74-14.09,16.74-14.09,18.47,33.65,31,32.87,7.41-65.09,7.41-65.09S3135.39,1147.11,3080.62,1161.2Z"/><g clip-path="url(#e)"><path fill="#291493" d="M3109.41,1174.55c-4.55-.07-9,1.17-13.5,1.89a60.07,60.07,0,0,1-34.92-5c-5.11-2.42-11-5.62-16-3-3.64,1.87-5.3,6.2-5.79,10.26-.82,6.73.86,13.89,5.29,19s11.74,7.86,18.28,6.1l3.33.36a171.24,171.24,0,0,0,33.72-1.09c6.25-.82,12.77-2.13,17.63-6.15s7.35-11.56,3.89-16.83C3118.82,1176.26,3114,1174.61,3109.41,1174.55Z"/><path fill="#291493" d="M3248,1222.76c-.41-.38-.94-.79-1.48-.65s-.84.8-1,1.36a50.13,50.13,0,0,0-2,11.4c-.34,6.19.18,13.23-4.15,17.66s-11.48,4-16.7,1.08-8.85-8-12.32-12.93l-13-18.43q3.21,15,6.43,30a21.4,21.4,0,0,1,.68,8c-.46,2.66-2.19,5.29-4.81,6-2.45.65-5.11-.58-6.79-2.49a16.88,16.88,0,0,1-3.21-6.83c-3.08-11.25-2.85-23.49-8-33.94-.89-1.8-2.73-3.8-4.54-2.94a3.11,3.11,0,0,0-1.17,1.08c-1.81,2.56-1.61,6-1.68,9.1s-.77,6.72-3.49,8.29a7.85,7.85,0,0,1-5.26.6c-7.27-1.25-12.72-7.17-17.39-12.88s-9.58-11.89-16.63-14.07l-4.8,45.53c10.71,4.81,16.88,16,21.62,26.75s9.2,22.3,18.41,29.57c6.64,5.23,15.05,7.63,23.32,9.38a198.13,198.13,0,0,0,40.4,4.28c10.33,0,21.24-1,29.68-6.89s13-15.92,14.26-26-.69-20.37-3.42-30.19C3266.62,1249.07,3259.89,1233.64,3248,1222.76Z"/></g><path fill="#262122" d="M3075.08,1198.56c-15.17,12.77-10.11,57-10.11,57,41.09-6.17,98.64-17.23,172.54-9.26l2.34-13S3163.49,1184.61,3075.08,1198.56Z"/><path fill="#5b6577" d="M3229.34,1116.14c-83.12-53.34-153.35,43.68-153.35,43.68,71,14.15,110.81,33.83,170.1,81.83C3246.09,1241.65,3300.05,1161.53,3229.34,1116.14Z"/><g clip-path="url(#f)"><path d="M3271.8,1100.36a105,105,0,0,1-9.36,69c-3.74,7.25-8.61,14.32-15.78,18.22-10.28,5.59-24.35,2.91-31.84-6.09a10.63,10.63,0,0,1-2.82-6,13.41,13.41,0,0,1,1.05-5.19l35.13-101.94a437.65,437.65,0,0,1-40.13,64c-3.07,4.07-6.31,8.17-10.67,10.81-3.59,2.18-7.74,3.23-11.85,4.08a149.69,149.69,0,0,1-59.23.29,13.75,13.75,0,0,1-6-2.28c-4.9-3.9-2.78-11.71.14-17.25a134.66,134.66,0,0,1,54.25-54.9c11.25-6.13,23.89-10.69,36.65-9.55l-33.75-5.82c-13.9-.54-26.93,6.43-38.47,14.18a244.37,244.37,0,0,0-47.7,42c-7.45,8.51-14.59,18.29-15.34,29.58a18.06,18.06,0,0,0,2.34,10.9c2.55,4,7,6.25,11.33,8.31l66.32,32c10.89,5.25,21.79,10.51,33.1,14.78,8.29,3.13,16.77,5.72,25.24,8.3l60.45,18.45c1.22.38,2.62.73,3.71.07a4.59,4.59,0,0,0,1.62-2.45c10.51-27.43,18.41-57.3,12.11-86C3288.56,1131,3280.13,1115.54,3271.8,1100.36Z" opacity=".3"/></g><path fill="#272b33" d="M3092.92,1140.79c-18.38-2.49-27.18,20.34-23.44,28.87a4.7,4.7,0,0,0,4.18,3.14c45.69-2.26,159.47,74.17,173.54,95a2.12,2.12,0,0,0,2.64.2c6.75-3.27,19.22-28.67,6.95-46C3248.22,1209.9,3168.14,1151,3092.92,1140.79Z"/><path d="M3080.83,1167.72a18.34,18.34,0,0,0-11.35,1.94,4.7,4.7,0,0,0,4.18,3.14c45.69-2.26,159.47,74.17,173.54,95a2.12,2.12,0,0,0,2.64.2,30.06,30.06,0,0,0-5.14-19.08C3236.12,1236.83,3156,1177.93,3080.83,1167.72Z" opacity=".6"/><path fill="#272b33" d="M3254.26,1115.68a54.84,54.84,0,0,0-12.71-4c-14.75-2.84-28,1.19-32.38,11-5.63,12.49,5.43,29.66,24.71,38.34,15.28,6.89,31.11,6.36,39.84-.35a17.22,17.22,0,0,0,5.28-6.57C3284.63,1141.54,3273.54,1124.37,3254.26,1115.68Z"/><path fill="#525863" d="M3254.26,1115.68a54.84,54.84,0,0,0-12.71-4,16.9,16.9,0,0,0-5.27,6.55c-5.63,12.49,5.43,29.66,24.71,38.35a57.32,57.32,0,0,0,12.73,4,17.22,17.22,0,0,0,5.28-6.57C3284.63,1141.54,3273.54,1124.37,3254.26,1115.68Z"/><path d="M3070.09,1210.79c-7.34,16.78-3.33,37.25-3.33,37.25s41.5-7.13,40-27.76C3105.22,1198.67,3070.09,1210.79,3070.09,1210.79Z" opacity=".3"/><path fill="#6b2e00" d="M3106.33,1277.93a14.74,14.74,0,0,0-2.62-2.37,13.35,13.35,0,0,0-1.53-.94,12.47,12.47,0,0,0-1.66-.66,10.87,10.87,0,0,0-3.52-.54,17,17,0,0,0-6.71,1.55,31.39,31.39,0,0,0-5.81,3.46,40.93,40.93,0,0,0-5.09,4.42h0a.78.78,0,0,0,0,1.11.79.79,0,0,0,1.11,0l0,0a32.37,32.37,0,0,1,10.36-7.51,14.41,14.41,0,0,1,6.07-1.29,9,9,0,0,1,3,.56,10.48,10.48,0,0,1,6.13,6,3.17,3.17,0,0,1-.36,2.36,6.31,6.31,0,0,1-1.91,2,20.51,20.51,0,0,1-5.64,2.47,36,36,0,0,1-6.18,1.24h-.05a1.47,1.47,0,0,0-.29,0,2,2,0,1,0,1,3.88,55.87,55.87,0,0,0,6.55-2.18,25.27,25.27,0,0,0,6.14-3.4,8.9,8.9,0,0,0,2.47-2.9,5.49,5.49,0,0,0,.36-4A9.3,9.3,0,0,0,3106.33,1277.93Z"/><path fill="#5b6577" d="M3362.07,1723.94c.5-2.18.46-7.39,0-14.93-2.49-42.79-17.46-160.71-14.56-227.42,3.41-78.51-29-106.68-56.83-114.35-1.74-.49-3.35-1-4.86-1.52-22.58-8-20.34-22.08-34.81-42.85-15.48-22.19-57.94-12-85.92-7.68s-37.82,7.21-37.74,21.33-8.53,24.76-8.53,24.76c-135.68-24.76-167.69,174-167.69,174s-33.71-18.72-137.82-65.66c-75.09-11.94-70,81.38-70,81.38s125.2,114.57,169,128.56c60.15,19.19,94.63,5.56,131.33-32-6,36.68-9.5,79.71-3.32,94.29,8.46,20.05-2.55,23,17.08,42.67,10.82,10.84,33.36,9.72,69.13,4.82,29-4,66.77-10.47,114.09-15.06,46.66-4.51,77.11-7.57,96-10.25,2.13-.31,4.11-.61,6-.9h0c18.82-3.06,23-5.85,19.77-10.18C3356,1744.41,3358.64,1738.45,3362.07,1723.94Z"/><path d="M3347.55,1481.59c3.41-78.51-29-106.68-56.83-114.35-1.74-.49-3.35-1-4.86-1.52,3.63,35.09-3,70.73-12,105A728.67,728.67,0,0,1,3107,1775.21c7.66,3,13.9,8.11,19.53,14.14,29-4,66.77-10.47,114.09-15.06,46.66-4.51,77.11-7.57,96-10.25a426.61,426.61,0,0,0,25.44-55C3359.62,1666.22,3344.65,1548.3,3347.55,1481.59Z" opacity=".5"/><g clip-path="url(#g)" opacity=".7"><path fill="#8e9db2" d="M2803.39,1436.75c-28.23,3.73-51.89,23.61-69.24,46.19-16.6,21.6-29.35,49.91-20.42,75.65,3.4,9.78,9.71,18.34,17.14,25.55a95.59,95.59,0,0,0,43.09,24c-3.45-19.81-6.91-39.79-6.12-59.88s6.16-40.57,18.69-56.29a72.62,72.62,0,0,1,60.5-26.69l2.69-24.07C2834.53,1437.65,2818.86,1434.7,2803.39,1436.75Z"/><path fill="#8e9db2" d="M2873.45,1482.7l2.55,1.24c-29.28,7.19-52.81,31.07-63.92,59.09s-10.86,59.59-4,88.94a29.51,29.51,0,0,0,2.81,8.12c4.56,8,14.68,10.47,23.7,12.21a196.87,196.87,0,0,1,26.13-128.09c10.79-17.89,25.19-34.56,44.41-42.74A35.47,35.47,0,0,0,2873.45,1482.7Z"/><path fill="#8e9db2" d="M2953.47,1494.93l-24.1-1.68c-22.66,23.11-36.12,54.44-40,86.57s1.31,65,12.39,95.4c2.52,6.92,5.46,13.92,10.59,19.19s12.95,8.54,20,6.4a12.36,12.36,0,0,0,8.12-7.18c1.25-3.4.57-7.18-.11-10.74-6-31.52-10.84-63.47-10.06-95.54S2937.69,1522.87,2953.47,1494.93Z"/><path fill="#8e9db2" d="M3087.08,1640c-21.92-2.84-43.75-10-61.53-22.91q-33.47-60.35-66.92-120.68l-6.09,30.6c7.89,29.24,15.85,58.67,28.78,86.06,8.77,18.58,20,36.29,34.17,51.08l.18,12.58c6.65,10.45,20.52,13.25,32.88,14,40.85,2.39,81.32-7.41,121.06-17.14l194.13-47.5q.44-20.88.89-41.76c-59.68,33.84-129.07,45.83-197.24,53.61C3140.72,1641,3113.71,1643.48,3087.08,1640Z"/><path fill="#8e9db2" d="M3188.64,1533.87c-60.52.33-124.3-21-160.67-69.42-11.26-15-21.41-33.46-39.53-38.22-11.9-3.13-24.42.64-36.15,4.39l17.72,13.93c14.68,37.85,46.84,65.76,78.39,91.3,10.8,8.74,21.83,17.5,34.61,22.94,11.82,5,24.71,7,37.5,8.22a319.86,319.86,0,0,0,80.77-2.8c25.2-4.11,49.82-11.23,74.9-16.06a419.84,419.84,0,0,1,99.89-7.07,126.18,126.18,0,0,0-10.7-45.34C3307.84,1514.55,3249.16,1533.55,3188.64,1533.87Z"/><path fill="#8e9db2" d="M3002.46,1374.59a5.2,5.2,0,0,0,2.58.42l-3-5.54C2999.92,1370.1,3000.45,1373.65,3002.46,1374.59Z"/><path fill="#8e9db2" d="M3364.23,1408.08c-4.82-1.35-9.88.53-14.56,2.32-64.42,24.69-138.19,36.95-201.52,9.57-23.05-10-43.7-24.76-66.36-35.59s-48.86-17.64-72.86-10.25a17.1,17.1,0,0,1-3.89.88l6,11.13c32.5,14.39,55,44.74,84.95,63.87,29.08,18.57,64.15,25.82,98.63,27,66.59,2.26,132.06-16.75,194.55-39.84C3376.63,1433.1,3376.94,1411.64,3364.23,1408.08Z"/><path fill="#8e9db2" d="M3277.2,1342.37c-9.93-3.38-20.79-2.34-31.16-.72-24.56,3.83-49.34,10.68-73.89,6.81-11.29-1.79-22.1-5.79-33.2-8.54a151.85,151.85,0,0,0-51.59-3.69l17.66,18.69,54.06,25.69c8.3,4,16.89,8,26.07,8.3,10.5.39,20.49-4.07,30.11-8.29,25.51-11.21,53.47-21.62,80.64-15.45C3295.89,1354.67,3287.14,1345.75,3277.2,1342.37Z"/><path fill="#8e9db2" d="M3382.91,1667.06c-62.36,20.36-121.75,49.83-185.44,65.54s-135.07,16.05-190.5-19l-52.6,107c7.47,7.34,19.2,7.47,29.67,7.14,123.43-3.91,249.61-8.36,364.76-53,15.89-6.15,32.15-13.54,42.73-26.9,14.47-18.29,15.23-43.55,15.34-66.87,0-4.13-.07-8.6-2.57-11.88C3399.65,1663,3390.2,1664.68,3382.91,1667.06Z"/></g><polygon fill="#e5e5e5" points="3094.92 1526.27 2999.32 1560.64 3069.22 1755.12 3095.93 1745.51 3225.02 1699.11 3155.12 1504.63 3094.92 1526.27"/><g opacity=".5"><rect width="99.68" height="15.09" x="3053.83" y="1550.55" fill="#738ea8" transform="rotate(-19.77 3103.392 1558.012)"/></g><g opacity=".5"><rect width="129.16" height="15.09" x="3037.21" y="1588.9" fill="#738ea8" transform="rotate(-19.77 3101.725 1596.421)"/></g><g opacity=".5"><rect width="129.16" height="15.09" x="3049.2" y="1622.26" fill="#738ea8" transform="rotate(-19.77 3113.484 1629.72)"/></g><g opacity=".5"><rect width="129.16" height="15.09" x="3061.19" y="1655.62" fill="#738ea8" transform="rotate(-19.77 3125.64 1663.117)"/></g><g opacity=".5"><rect width="129.16" height="15.09" x="3073.18" y="1688.98" fill="#738ea8" transform="rotate(-19.77 3137.541 1696.44)"/></g><g opacity=".3"><polygon points="3094.92 1526.27 3095.93 1745.51 3225.02 1699.11 3155.12 1504.63 3094.92 1526.27"/></g><rect width="206.65" height="165.56" x="3080.7" y="1542.17" fill="#d3d3d3" transform="matrix(.09 -1 1 .09 1289.12 4656.1)"/><g opacity=".4"><rect width="15.09" height="99.68" x="3198.81" y="1506.36" fill="#323f5f" transform="rotate(-85.03 3206.171 1556.259)"/></g><g opacity=".4"><rect width="15.09" height="129.16" x="3181.05" y="1525.66" fill="#323f5f" transform="rotate(-85.03 3188.414 1590.298)"/></g><g opacity=".4"><rect width="15.09" height="129.16" x="3177.98" y="1560.98" fill="#323f5f" transform="matrix(.09 -1 1 .09 1289.88 4658.14)"/></g><g opacity=".4"><rect width="15.09" height="129.16" x="3174.9" y="1596.29" fill="#323f5f" transform="rotate(-85.03 3182.263 1660.925)"/></g><g opacity=".4"><rect width="15.09" height="129.16" x="3171.83" y="1631.61" fill="#323f5f" transform="rotate(-85.03 3179.187 1696.238)"/></g><rect width="163.58" height="204.19" x="3062.47" y="1568.91" fill="#fff" transform="rotate(-12.22 3145.098 1671.367)"/><rect width="98.49" height="14.91" x="3096" y="1592.14" fill="#738ea8" transform="rotate(-12.22 3145.952 1599.836)"/><rect width="127.62" height="14.91" x="3074.62" y="1629.46" fill="#738ea8" transform="rotate(-12.22 3139.39 1637.307)"/><rect width="127.62" height="14.91" x="3082.03" y="1663.69" fill="#738ea8" transform="rotate(-12.22 3146.603 1671.433)"/><rect width="127.62" height="14.91" x="3089.45" y="1697.92" fill="#738ea8" transform="rotate(-12.22 3154.222 1705.745)"/><rect width="127.62" height="14.91" x="3096.87" y="1732.16" fill="#738ea8" transform="rotate(-12.22 3161.336 1739.908)"/><path fill="#0f4396" d="M3310.52,1373.89s36.75,173.19-100.61,287.1c-122.17,101.32-177.63-6.65-186.74-34-36,5.34-145.33,209.71-44.11,286.32s304-104.15,353.53-277.84c43.85-153.72,10.85-237.85,10.85-237.85C3339.88,1384.83,3321.26,1370.92,3310.52,1373.89Z"/><path fill="#ff9739" d="M3310.52,1373.89s36.75,173.19-100.61,287.1c-122.17,101.32-177.63-6.65-186.74-34-36,5.34-145.33,209.71-44.11,286.32s304-104.15,353.53-277.84c43.85-153.72,10.85-237.85,10.85-237.85C3339.88,1384.83,3321.26,1370.92,3310.52,1373.89Z"/><g clip-path="url(#h)"><path fill="#202e49" d="M2963.49,1572.38l-12-11.33C2953.52,1566.65,2958,1570.21,2963.49,1572.38Z"/><path fill="#ff7300" d="M3286.81,1345.6c-3.92.51-7,3.45-9.79,6.26-45.05,45.64-84.78,96.6-132.88,139s-107.06,76.6-171.13,79.47c-6.87.31-14.58-.33-20.94-2.84l45.72,43.27-1.78,5.13c-22.58,57.2-5.66,127.69,40.42,168.42-27.21-33.76-37.69-80.38-27.53-122.53.6-2.48,1.27-4.94,2-7.39a161.21,161.21,0,0,0,10.39,20.89c11.76,19.71,28.62,36.85,49.54,46.29,31.11,14,68.27,9.61,99-5.24s55.9-39.09,78.33-64.81c15.64-17.94,30.31-36.92,41.25-58,21.34-41.22,27.49-88.48,31.24-134.75,3-36.75,3.42-77.55-20.38-105.71C3296.81,1348.92,3292.11,1344.92,3286.81,1345.6Z" opacity=".6"/><path fill="#ff7300" d="M3096.81,1796c-21,5.1-43.43,7.5-64.13,1.17s-39.28-22.94-42.9-44.28c-3.88,26.24-7.36,54.82,5.95,77.75,12.45,21.44,37.85,33.16,62.63,33.88s48.95-8.21,70.66-20.18a256.24,256.24,0,0,0,74.58-62.21c15.18-18.6,27.68-39.26,38.61-60.64a507.81,507.81,0,0,0,28.51-67.27l-8.89,17.85C3226.68,1733.45,3165.55,1779.37,3096.81,1796Z" opacity=".6"/></g><path fill="#fff" d="M3069.06,1214.35c-5.64,12.89-2.55,28.62-2.55,28.62s31.87-5.48,30.73-21.33C3096.05,1205,3069.06,1214.35,3069.06,1214.35Z"/></svg>